# Blender 3.4.1
# www.blender.org
mtllib ccm_flag.mtl
o Cube
v 0.094118 0.613738 -0.108650
v 0.094118 -0.726843 -0.108650
v 0.094118 0.613738 0.108650
v 0.094118 -0.726843 0.108650
v -0.094118 0.613738 -0.108650
v -0.094118 -0.726843 -0.108650
v -0.094118 0.613738 0.108650
v -0.094118 -0.726843 0.108650
v 0.094118 5.434926 -0.108650
v 0.094118 5.434926 0.108650
v -0.094118 5.434926 -0.108650
v -0.094118 5.434926 0.108650
v -0.094118 3.024332 0.108650
v -0.094118 3.024332 -0.108650
v 0.094118 3.024332 -0.108650
v 0.094118 3.024332 0.108650
v -0.094118 5.116541 0.108650
v 0.094118 5.116541 -0.108650
v -0.094118 5.116541 -0.108650
v 0.094118 5.116541 0.108650
v 3.014734 3.024332 -0.108650
v 3.014734 3.024332 0.108650
v 3.014734 5.116541 -0.108650
v 3.014734 5.116541 0.108650
v -0.284250 -1.284076 0.274354
v -0.284250 -0.629832 0.274354
v -0.284250 -1.284076 -0.274354
v -0.284250 -0.629832 -0.274354
v 0.284250 -1.284076 0.274354
v 0.284250 -0.629832 0.274354
v 0.284250 -1.284076 -0.274354
v 0.284250 -0.629832 -0.274354
vn -1.0000 -0.0000 -0.0000
vn -0.0000 -0.0000 1.0000
vn -0.0000 -1.0000 -0.0000
vn 1.0000 -0.0000 -0.0000
vn -0.0000 -0.0000 -1.0000
vn -0.0000 1.0000 -0.0000
vt 0.625000 0.500000
vt 0.048045 0.929362
vt 0.930137 0.295755
vt 0.375000 0.500000
vt 0.625000 0.750000
vt 0.984274 0.654029
vt 0.930137 0.545755
vt 0.375000 0.750000
vt 0.625000 0.250000
vt 0.048045 0.679362
vt 0.110696 0.966088
vt 0.125000 0.500000
vt 0.375000 0.250000
vt 0.625000 1.000000
vt 0.625000 0.000000
vt 0.984274 0.916333
vt 0.110696 0.716088
vt 0.375000 1.000000
vt 0.375000 0.000000
vt 0.125000 0.750000
vt 0.093471 0.219471
vt 0.625000 0.500000
vt 0.074219 0.289062
vt 0.625000 0.750000
vt 0.093471 0.469471
vt 0.625000 0.250000
vt 0.343471 0.219471
vt 0.074219 0.039062
vt 0.625000 0.000000
vt 0.343471 0.469471
vt 0.093471 0.719471
vt 0.984274 0.916333
vt 0.110696 0.716088
vt 0.698824 0.409412
vt 0.625000 0.000000
vt 0.048045 0.679362
vt 0.110696 0.966088
vt 0.023438 0.472656
vt 0.625000 0.250000
vt 0.048045 0.929362
vt 0.930137 0.295755
vt 0.074219 0.289062
vt 0.023438 0.722656
vt 0.984274 0.654029
vt 0.930137 0.545755
vt 0.698824 0.134804
vt 0.883382 0.921383
vt 0.074219 0.539062
vt 0.093471 0.719471
vt 0.698824 0.409412
vt 0.625000 0.000000
vt 0.625000 0.500000
vt 0.074219 0.289062
vt 0.023438 0.722656
vt 0.074219 0.039062
vt 0.023438 0.472656
vt 0.625000 0.250000
vt 0.625000 0.750000
vt 0.093471 0.469471
vt 0.698824 0.134804
vt 0.883382 0.921383
vt 0.023438 0.972656
vt 0.972656 0.093750
vt 0.074219 0.289062
vt 0.023438 0.722656
vt 0.883382 0.921383
vt 0.972656 0.343750
vt 0.074219 0.539062
vt 0.972656 0.093750
vt 0.023438 0.722656
vt 0.883382 0.921383
vt 0.972656 0.343750
vt 0.023438 0.972656
vt 0.749990 0.845665
vt 0.749990 0.970741
vt 0.718722 0.939472
vt 0.781259 0.845665
vt 0.781259 0.970741
vt 0.812528 0.939472
vt 0.749990 0.876934
vt 0.718722 0.908203
vt 0.781259 0.876934
vt 0.812528 0.908203
vt 0.749990 0.939472
vt 0.781259 0.939472
vt 0.749990 0.908203
vt 0.781259 0.908203
s 0
usemtl Material
f 19/57/1 17/51/1 12/29/1 11/26/1
f 4/8/2 3/5/2 7/14/2 8/18/2
f 8/19/1 7/15/1 5/9/1 6/13/1
f 6/12/3 2/4/3 4/8/3 8/20/3
f 2/4/4 1/1/4 3/5/4 4/8/4
f 6/13/5 5/9/5 1/1/5 2/4/5
f 9/21/6 11/27/6 12/30/6 10/25/6
f 20/58/4 18/52/4 9/22/4 10/24/4
f 18/53/5 19/55/5 11/28/5 9/23/5
f 17/49/2 20/59/2 10/25/2 12/31/2
f 7/16/2 3/6/2 16/44/2 13/32/2
f 1/2/5 5/10/5 14/36/5 15/40/5
f 3/7/4 1/3/4 15/41/4 16/45/4
f 5/11/1 7/17/1 13/33/1 14/37/1
f 13/34/2 16/46/2 20/60/2 17/50/2
f 15/43/5 14/38/5 19/56/5 18/54/5
f 20/61/2 16/47/2 22/66/2 24/71/2
f 14/39/1 13/35/1 17/51/1 19/57/1
f 22/67/4 21/63/4 23/69/4 24/72/4
f 18/54/6 20/62/6 24/73/6 23/70/6
f 16/48/3 15/42/3 21/64/3 22/68/3
f 15/43/5 18/54/5 23/70/5 21/65/5
f 25/74/1 26/77/1 28/82/1 27/80/1
f 27/80/5 28/82/5 32/87/5 31/86/5
f 31/86/4 32/87/4 30/85/4 29/84/4
f 29/84/2 30/85/2 26/78/2 25/75/2
f 27/81/3 31/86/3 29/84/3 25/76/3
f 32/87/6 28/83/6 26/79/6 30/85/6
